<svg width="524" height="110" xmlns="http://www.w3.org/2000/svg">

 <g>
  <title>background</title>
  <rect fill="none" id="canvas_background" height="112" width="526" y="-1" x="-1"/>
 </g>
 <g>
  <title>Layer 1</title>
  <g transform="matrix(2.4999635224896486,0,0,2.4999635224896486,9.99893894104643,4.999824764901254) " fill="#fdfdfd" id="turbojetg2">
   <g id="svg_1">
    <path id="svg_2" d="m17.956006,23.032006c-0.244,-0.062 -0.771,0.665 -1.173,1.628c-0.405,0.961 -0.532,1.789 -0.293,1.849c0.245,0.063 0.769,-0.663 1.174,-1.626c0.406,-0.96 0.536,-1.788 0.292,-1.851zm4.242,6.817c-0.244,-0.062 -0.771,0.666 -1.173,1.628c-0.405,0.962 -0.533,1.789 -0.294,1.851c0.245,0.062 0.769,-0.664 1.174,-1.627c0.408,-0.958 0.538,-1.788 0.293,-1.852zm66.782,-6.415l-2.643,-0.613c-0.664,-0.151 -1.296,-0.217 -1.904,-0.214c-0.705,-0.003 -1.365,0.089 -1.986,0.228c-2.199,0.496 -13.541,3.316 -13.546,3.316c-0.264,0.064 -0.49,0.264 -0.593,0.515c-0.103,0.248 -0.063,0.513 0.099,0.686c0.082,0.086 2.186,2.164 8.161,2.676c0.014,0.002 0.264,-0.021 0.366,-0.064l11.957,-5.22c0.289,-0.127 0.501,-0.387 0.51,-0.676c0.009,-0.335 -0.149,-0.568 -0.421,-0.634zm-42.726,-15.718c0.256,0.059 0.802,-0.657 1.215,-1.605c0.413,-0.947 0.541,-1.763 0.286,-1.826c-0.257,-0.06 -0.802,0.659 -1.216,1.604c-0.412,0.949 -0.541,1.766 -0.285,1.827zm0.872,0.938c1.029,0.532 2.854,1.241 5.541,1.419c1.548,-1.012 1.786,-3.732 1.786,-3.732s-1.48,-1.772 -5.459,-2.345c0.083,0.244 0.269,1.178 -0.411,2.591c-0.682,1.414 -1.388,2.018 -1.457,2.067zm-15.227,3.863c1.03,0.533 2.854,1.242 5.541,1.419c1.547,-1.012 1.786,-3.732 1.786,-3.732s-1.481,-1.772 -5.459,-2.345c0.083,0.244 0.268,1.177 -0.412,2.591c-0.682,1.414 -1.388,2.018 -1.456,2.067zm44.539,19.003c-6.297,-0.537 -8.772,-2.766 -9.131,-3.149c-0.374,-0.399 -0.56,-0.925 -0.558,-1.431c0,-0.271 0.05,-0.583 0.169,-0.842c0.298,-0.705 0.862,-1.207 1.625,-1.405l0.007,-0.002l-0.001,0l0.007,-0.002l0.006,-0.001l0.001,0c0.001,0 0.001,0 0.001,0c0.003,-0.001 0.005,-0.002 0.009,-0.004c0.007,-0.001 10.606,-2.614 12.186,-2.993l4.34,-4.84l-2.247,-0.984c-1.083,-0.413 -2.314,0 -3.311,0.498c-0.833,0.413 -11.42,5.326 -14.883,6.934c-4.62,-2.145 -9.532,-4.267 -13.512,-5.941l28.919,-14.915c0,0 -0.665,-0.702 -1.598,-1.402c-0.928,-0.699 -1.931,-0.962 -4.802,-0.087c-1.176,0.358 -8.985,2.374 -18.261,4.647c0.201,0.211 0.3,0.348 0.3,0.348s-0.024,3.821 -2.716,5.359c-4.252,-0.201 -6.807,-1.73 -7.46,-2.198c-0.27,-0.15 -0.588,-0.508 -0.755,-0.952c-1.618,0.381 -3.222,0.754 -4.791,1.114c0.336,0.321 0.493,0.54 0.493,0.54s-0.023,3.821 -2.715,5.36c-4.252,-0.202 -6.806,-1.73 -7.46,-2.198c-0.304,-0.17 -0.683,-0.593 -0.82,-1.119l-6.674,1.241c4.241,3.457 10.107,5.251 17.029,6.78l-0.49,1.192c-15.06,-2.788 -18.277,-7.942 -18.277,-7.942c-0.086,-0.429 0.107,-0.677 0.541,-0.836l7.879,-1.521c0.079,-0.453 0.6,-1.727 0.635,-1.801c-6.205,-2.348 -12.951,-4.757 -16.038,-5.376c-1.48,-0.297 -2.916,-0.331 -4.212,-0.232c0.289,0.307 1.076,1.297 0.756,2.737l-5.373,-1.822c-0.438,0.136 -0.754,0.243 -0.906,0.28c-0.954,0.248 -2.973,0.596 -3.722,1.837c-0.813,1.346 0.578,3.464 3.761,5.577c2.328,1.543 10.426,4.69 14.622,6.274c-0.396,0.489 -0.543,1.256 0.033,1.952l1.911,2.899c-0.528,-0.129 -1.101,-0.251 -1.769,-0.348c0.147,0.521 0.1,1.328 -0.404,2.624c-0.418,1.074 -1.165,1.858 -1.485,2.161c1,0.527 2.66,1.178 5.07,1.347c0.385,-0.382 0.674,-0.807 0.924,-1.235l1.487,2.17c-0.415,-0.091 -0.856,-0.176 -1.349,-0.247c0.147,0.52 0.1,1.327 -0.405,2.624c-0.418,1.073 -1.165,1.858 -1.484,2.159c1,0.529 2.66,1.179 5.07,1.349c0.487,-0.482 0.848,-1.031 1.125,-1.574l0.409,0.597l0.954,-1.041l-10.222,-16.79l1.028,-0.708l13.892,22.602l2.719,1.344c1.07,0.628 1.771,0.132 1.72,-1.086l-0.593,-11.978c4.647,1.391 9.594,2.454 12.678,3.085c4.435,0.963 10.688,2.188 16.436,3.13c0.45,0.867 1.193,2.3 1.465,2.812c0.4,0.753 0.275,0.977 1.658,1.686c1.381,0.712 2.421,1.108 2.711,1.243c0.286,0.133 0.674,-0.67 0.821,-1.247l0,-3.516c1.16,0.145 2.249,0.265 3.218,0.347c1.43,0.004 2.658,-0.431 3.1,-1.058c0.405,-0.573 0.033,-1.254 -0.382,-1.774l-2.909,-0.252zm-45.412,-19.94c0.257,0.059 0.802,-0.657 1.215,-1.605c0.413,-0.947 0.541,-1.763 0.286,-1.826c-0.257,-0.06 -0.801,0.659 -1.215,1.604c-0.412,0.949 -0.541,1.766 -0.286,1.827z"/>
   </g>
  </g>
  <g transform="matrix(3.925908808120736,0,0,3.925908808120736,243.85927243869813,-20.259084337168957) " fill="#ffffff" id="turbojetg3">
   <path id="svg_3" d="m9.434718,10.254718c0.2,0 0.3,0.1 0.3,0.3l0,0.98c0,0.2 -0.1,0.3 -0.3,0.3l-3.16,0l0,12.12c0,0.2 -0.1,0.3 -0.3,0.3l-1.14,0c-0.2,0 -0.3,-0.1 -0.3,-0.3l0,-12.12l-3.18,0c-0.2,0 -0.3,-0.1 -0.3,-0.3l0,-0.98c0,-0.2 0.1,-0.3 0.3,-0.3l4.62,0l3.46,0zm5.36,14.08c-2.26,0 -3.06,-1.34 -3.06,-3.54l0,-6.24c0,-0.2 0.1,-0.3 0.3,-0.3l1.1,0c0.2,0 0.3,0.1 0.3,0.3l0,6.34c0,1.28 0.44,1.88 1.7,1.88l0.28,0c1.32,0 2.12,-0.72 2.38,-1.18l0,-7.04c0,-0.2 0.1,-0.3 0.3,-0.3l1.1,0c0.2,0 0.3,0.1 0.3,0.3l0,9.4c0,0.2 -0.1,0.3 -0.3,0.3l-1.1,0c-0.2,0 -0.3,-0.1 -0.3,-0.3l0,-1.1c-0.56,0.86 -1.52,1.48 -2.84,1.48l-0.16,0zm12.9,-8.62c-0.08,0.18 -0.24,0.22 -0.44,0.16c-0.3,-0.1 -0.64,-0.16 -1.04,-0.16l-0.24,0c-1.32,0 -2.12,0.74 -2.38,1.2l0,7.04c0,0.2 -0.1,0.3 -0.3,0.3l-1.1,0c-0.2,0 -0.3,-0.1 -0.3,-0.3l0,-9.4c0,-0.2 0.1,-0.3 0.3,-0.3l1.1,0c0.2,0 0.3,0.1 0.3,0.3l0,1.1c0.64,-1 1.7,-1.48 3,-1.48c0.52,0 0.98,0.08 1.38,0.24c0.2,0.1 0.24,0.24 0.14,0.46l-0.42,0.84zm6.68,-1.54c2.14,0 3.52,1.38 3.52,3.64l0,2.92c0,2.22 -1.38,3.62 -3.52,3.62l-0.6,0c-1.2,0 -1.9,-0.56 -2.3,-1.3l0,0.9c0,0.2 -0.12,0.3 -0.3,0.3l-1.1,0c-0.2,0 -0.3,-0.1 -0.3,-0.3l0,-13.4c0,-0.2 0.1,-0.3 0.3,-0.3l1.1,0c0.18,0 0.3,0.1 0.3,0.3l0,4.82c0.4,-0.72 1.1,-1.2 2.3,-1.2l0.6,0zm1.82,6.72l0,-3.24c0,-1.32 -0.68,-1.94 -1.84,-1.94l-1.04,0c-1.16,0 -1.84,0.62 -1.84,1.94l0,3.24c0,1.26 0.68,1.9 1.84,1.9l1.04,0c1.16,0 1.84,-0.64 1.84,-1.9zm7.98,-6.72c2.18,0 3.54,1.38 3.54,3.64l0,2.92c0,2.22 -1.36,3.62 -3.54,3.62l-0.94,0c-2.16,0 -3.54,-1.4 -3.54,-3.62l0,-2.92c0,-2.26 1.38,-3.64 3.54,-3.64l0.94,0zm1.86,6.72l0,-3.24c0,-1.32 -0.7,-1.94 -1.86,-1.94l-0.94,0c-1.16,0 -1.84,0.62 -1.84,1.94l0,3.24c0,1.26 0.68,1.9 1.84,1.9l0.94,0c1.16,0 1.86,-0.64 1.86,-1.9zm4.02,-10.34c0,-0.2 0.1,-0.3 0.3,-0.3l1.06,0c0.2,0 0.3,0.1 0.3,0.3l0,1.08c0,0.2 -0.1,0.3 -0.3,0.3l-1.06,0c-0.2,0 -0.3,-0.1 -0.3,-0.3l0,-1.08zm-1.62,16.82c-0.06,-0.18 0,-0.32 0.18,-0.38c0.66,-0.24 1.44,-0.9 1.44,-1.7l0,-10.74c0,-0.2 0.1,-0.3 0.3,-0.3l1.06,0c0.2,0 0.3,0.1 0.3,0.3l0,10.8c0,1.42 -1.04,2.76 -2.48,3.22c-0.18,0.06 -0.3,-0.02 -0.38,-0.2l-0.42,-1zm10,-13.2c1.82,0 3.44,1.34 3.44,3.62l0,1.52c0,0.38 -0.24,0.62 -0.64,0.62l-5.48,0l0,1.02c0,1.2 0.68,1.84 1.86,1.84l0.82,0c1.24,0 1.56,-0.36 2.06,-0.96c0.14,-0.16 0.24,-0.18 0.44,-0.04l0.58,0.4c0.2,0.14 0.2,0.26 0.08,0.42c-0.72,0.88 -1.4,1.74 -3.16,1.74l-0.82,0c-2.18,0 -3.6,-1.5 -3.6,-3.68l0,-2.86c0,-2.26 1.42,-3.64 3.6,-3.64l0.82,0zm1.72,4.38l0,-0.9c0,-1.32 -0.72,-1.94 -1.72,-1.94l-0.82,0c-1.18,0 -1.86,0.62 -1.86,1.96l0,0.88l4.4,0zm7.88,-2.76l-1.54,0l0,5.4c0,1.12 0.36,1.52 1.48,1.56c0.24,0 0.34,0.16 0.32,0.38l-0.02,0.82c-0.02,0.22 -0.16,0.34 -0.4,0.34c-2.38,-0.02 -3.08,-1.04 -3.08,-3.12l0,-5.38l-1.02,0c-0.2,0 -0.3,-0.1 -0.3,-0.3l0,-0.92c0,-0.22 0.1,-0.32 0.3,-0.32l1.02,0l0,-1.22c0,-0.2 0.1,-0.3 0.3,-0.3l1.1,0c0.2,0 0.3,0.1 0.3,0.3l0,1.22l1.52,0c0.22,0 0.32,0.1 0.32,0.3l0,0.94c0,0.2 -0.12,0.3 -0.3,0.3z"/>
  </g>
 </g>
</svg>