<?xml version="1.0" encoding="utf-8"?>
<!-- Generator: Adobe Illustrator 21.1.0, SVG Export Plug-In . SVG Version: 6.00 Build 0)  -->
<svg version="1.1" id="Layer_1" xmlns="http://www.w3.org/2000/svg" xmlns:xlink="http://www.w3.org/1999/xlink" x="0px" y="0px"
	 viewBox="0 0 512 100" style="enable-background:new 0 0 512 100;" xml:space="preserve">
<style type="text/css">
	.st0{fill:#FFFFFF;}
	.st1{fill:#EBF3FF;}
</style>
<g>
	<g>
		<g>
			<g>
				<g>
					<path class="st0" d="M72.2,94.2c-0.3,1.1-1,1.2-1.6,0.2L46.7,56.2c-0.6-0.9-1.8-2.2-2.8-2.8L5.7,29.6C4.8,29,4.9,28.3,5.9,28
						L94.5,4.3c1.1-0.3,1.7,0.4,1.4,1.4L72.2,94.2z M18.7,29.9c-1.1,0.3-1.2,1-0.2,1.6l29.2,18.3c0.9,0.6,2.2,1.8,2.8,2.8l18.3,29.2
						c0.6,0.9,1.3,0.8,1.6-0.2l18.4-68.5c0.3-1.1-0.4-1.7-1.4-1.4L18.7,29.9z"/>
				</g>
			</g>
		</g>
		<polygon class="st0" points="10.4,29.5 47.5,52.6 92.8,7.4 		"/>
		<polygon class="st1" points="92.8,7.4 47.5,52.6 47.5,52.6 70.7,89.8 		"/>
		<g>
			<g>
				<g>
					<path class="st1" d="M14.7,87.6c-0.8,0.8-2,0.8-2.8,0l-0.1-0.1c-0.8-0.8-0.8-2,0-2.8l23.5-23.9c0.8-0.8,2-0.8,2.8,0l0.1,0.1
						c0.8,0.8,0.8,2,0,2.8L14.7,87.6z"/>
				</g>
			</g>
		</g>
		<g>
			<g>
				<g>
					<path class="st1" d="M14.1,68c-0.8,0.8-2.1,0.8-2.8,0l-0.1-0.1c-0.8-0.8-0.8-2,0-2.8L25,51.4c0.8-0.8,2.1-0.8,2.8,0l0.1,0.1
						c0.8,0.8,0.8,2,0,2.8L14.1,68z"/>
				</g>
			</g>
		</g>
		<g>
			<g>
				<g>
					<path class="st1" d="M38.4,85.7c-0.8,0.8-2,0.8-2.8,0l-0.1-0.1c-0.8-0.8-0.8-2,0-2.8l10.4-10.5c0.8-0.8,2-0.8,2.8,0l0.1,0.1
						c0.8,0.8,0.8,2,0,2.8L38.4,85.7z"/>
				</g>
			</g>
		</g>
	</g>
	<g>
		<path class="st0" d="M159.6,26.1h-1c-4.9,0-8.8,1.1-11.5,3.4c-2.7,2.3-4.1,6.4-4.1,12.2c0,1.9,0.2,3.2,0.6,4
			c0.4,0.7,0.6,1.2,0.6,1.3c-3,0-5.2-0.6-6.7-1.7c-1.5-1.2-2.2-3.1-2.2-5.8c0-3.7,1-7,2.9-10c1.9-3,5-5.5,9.3-7.3
			c4.2-1.9,9.6-2.8,16.1-2.8c3.7,0,7.6,0.3,11.8,0.9c3.5,0.6,6.7,0.9,9.5,0.9c3.5,0,6.8-0.5,9.6-1.6c-0.1,3.4-1,5.8-2.7,7.4
			c-1.7,1.6-4.3,2.4-7.6,2.4c-1.8,0-3.5-0.1-5.3-0.4c-1.8-0.3-4.3-0.7-7.6-1.3l-11.5,49.7h-12L159.6,26.1z"/>
		<path class="st0" d="M176.5,75.4c-1.6-1.5-2.4-3.9-2.4-7c0-1.3,0.2-3,0.7-5l5.6-24.8h12l-6,26.3c-0.2,0.8-0.2,1.5-0.2,2.2
			c0,2.1,0.8,3.2,2.5,3.2c1.5,0,2.9-0.6,4-1.8c1.1-1.2,2-2.9,2.7-5l5.6-24.8h12l-6,26.3c-0.2,0.8-0.3,1.6-0.3,2.5
			c0,1,0.3,1.8,0.8,2.2c0.5,0.4,1.4,0.7,2.6,0.7c1.5,0,2.9-0.6,4-1.9c1.1-1.2,2-2.9,2.7-5h3.5c-2,5.6-4.6,9.3-7.6,11.3
			c-3,2-6,3-9.1,3c-2.4,0-4.3-0.6-5.7-1.9c-1.4-1.2-2.3-3.1-2.5-5.5c-1.9,2.8-3.9,4.8-5.9,5.8c-2.1,1-4.2,1.5-6.4,1.5
			C180.3,77.8,178.1,77,176.5,75.4z"/>
		<path class="st0" d="M222.3,38.6h12l-1.1,4.8c1.9-1.5,3.6-2.7,5.1-3.6c1.5-0.8,3.2-1.2,4.9-1.2c1.8,0,3.2,0.6,4.2,1.7
			c1,1.1,1.5,2.5,1.5,4.1c0,1.5-0.5,2.8-1.6,3.9c-1.1,1.1-2.5,1.7-4.4,1.7c-1.2,0-2-0.3-2.4-0.8c-0.4-0.5-0.7-1.3-1-2.4
			c-0.2-0.7-0.3-1.2-0.5-1.5c-0.2-0.3-0.5-0.5-0.9-0.5c-1.2,0-2.1,0.2-2.9,0.7c-0.8,0.4-1.8,1.2-3.1,2.3l-6.6,29.4h-12L222.3,38.6z"
			/>
		<path class="st0" d="M250.3,75.2c-2-1.7-3-4.2-3-7.3c0-1.5,0.2-3,0.6-4.4l8.9-38.8l12.3-1.5l-4,17.4c1.5-0.9,2.8-1.5,3.8-1.7
			c1-0.3,2-0.4,3-0.4c6.5,0,9.8,4.4,9.8,13.2c0,3.6-0.7,7.4-2.2,11.4c-1.5,4-3.9,7.5-7.3,10.4c-3.4,2.9-7.8,4.3-13.2,4.3
			C255.1,77.8,252.2,76.9,250.3,75.2z M268.4,67.3c1.5-2,2.7-4.5,3.6-7.4c0.9-3,1.3-5.8,1.3-8.6c0-2.1-0.4-3.8-1.2-5.3
			c-0.8-1.4-1.9-2.2-3.2-2.2c-0.8,0-1.8,0.1-2.8,0.3c-1,0.2-1.7,0.6-2.1,1l-4.6,19.7c-0.2,0.6-0.2,1.2-0.2,1.8
			c0,2.4,1.5,3.6,4.4,3.6C265.3,70.3,266.9,69.3,268.4,67.3z"/>
		<path class="st0" d="M287.1,74.7c-2.4-2-3.6-5.1-3.6-9.3c0-3.5,0.8-7.4,2.3-11.7c1.5-4.3,4-8,7.5-11.1c3.4-3.1,7.7-4.7,13-4.7
			c7.1,0,10.6,4.1,10.6,12.4v0.1c0.2,0.1,0.5,0.1,0.9,0.1c1.8,0,3.9-0.5,6.3-1.4c2.4-0.9,4.5-2,6.5-3.3l0.7,2.1
			c-1.6,1.6-3.7,3-6.3,4.1c-2.6,1.1-5.4,1.9-8.4,2.4c-0.4,4.7-1.6,8.8-3.4,12.3c-1.8,3.5-4.2,6.2-7.1,8.1c-2.9,1.9-6,2.9-9.4,2.9
			C292.7,77.6,289.5,76.6,287.1,74.7z M304.1,68.5c1.3-1.4,2.5-3.4,3.5-5.8c1-2.5,1.7-5.2,2.2-8.2c-1.5-0.3-2.2-1.4-2.2-3.2
			c0-2.1,0.9-3.5,2.6-4.2c-0.1-1.7-0.4-2.9-0.8-3.5c-0.4-0.6-1.2-1-2.3-1c-1.8,0-3.6,1.2-5.3,3.7c-1.7,2.5-3.1,5.4-4.2,8.9
			c-1.1,3.5-1.6,6.5-1.6,9.1c0,2.5,0.3,4.1,0.9,5c0.6,0.9,1.7,1.3,3.3,1.3C301.5,70.6,302.8,69.9,304.1,68.5z"/>
		<path class="st0" d="M307,94.7c-1.8-1.3-2.7-3.1-2.7-5.6c0-5,4.5-8.8,13.6-11.5l8.9-39h12l-8.2,35.9c2.7-0.8,4.8-2.1,6.4-3.7
			c1.6-1.7,3-4.1,4.1-7.4h3.5c-1.5,4.6-3.5,8-6.1,10.1c-2.5,2.1-5.4,3.6-8.6,4.4l-1.2,5.6c-1.1,5-3,8.4-5.7,10.3
			c-2.7,1.9-5.8,2.8-9.2,2.8C311,96.6,308.8,96,307,94.7z M314.5,88.8c0.9-1.2,1.6-2.9,2.1-5.1l0.5-2.2c-5.4,1.9-8.1,4-8.1,6.6
			c0,0.7,0.2,1.3,0.7,1.8c0.5,0.5,1.2,0.8,2.1,0.8C312.7,90.6,313.6,90,314.5,88.8z M329.7,32.6c-1.3-1.2-1.9-2.6-1.9-4.3
			c0-1.7,0.6-3.2,1.9-4.4c1.3-1.2,2.8-1.8,4.6-1.8c1.8,0,3.4,0.6,4.7,1.8c1.3,1.2,2,2.7,2,4.4c0,1.7-0.7,3.1-2,4.3
			c-1.3,1.2-2.9,1.8-4.7,1.8C332.5,34.4,331,33.8,329.7,32.6z"/>
		<path class="st0" d="M343.4,74.8c-2.3-2-3.4-5.1-3.4-9.3c0-3.6,0.7-7.5,2.2-11.8s3.9-8,7.3-11.1c3.4-3.1,7.7-4.7,12.9-4.7
			c6.1,0,9.1,2.5,9.1,7.4c0,2.9-0.9,5.5-2.7,8c-1.8,2.4-4.1,4.4-7.1,5.8c-2.9,1.5-6.1,2.3-9.4,2.5c-0.1,1.5-0.2,2.6-0.2,3.1
			c0,2.5,0.5,4.2,1.4,5.1c0.9,0.9,2.5,1.4,4.6,1.4c3,0,5.5-0.6,7.7-1.9c2.1-1.3,4.5-3.2,7-5.9h2.8C369.7,73,362,77.8,353,77.8
			C348.9,77.8,345.7,76.8,343.4,74.8z M359,55.9c1.9-1.2,3.3-2.8,4.5-4.7c1.1-1.9,1.7-3.9,1.7-6c0-2.1-0.7-3.2-2.1-3.2
			c-2,0-3.9,1.6-5.9,4.9c-1.9,3.2-3.3,6.9-4.1,11.1C355.2,57.9,357.1,57.2,359,55.9z"/>
		<path class="st0" d="M374.5,75.4c-1.4-1.6-2-3.7-2-6.3c0-1.3,0.2-2.7,0.5-4.1l5.3-23.2h-2.7l0.7-3.1h2.7l2.5-10.7l12.3-1.5
			c-0.5,2-0.8,3.1-0.8,3.5c-0.4,1.4-1.1,4.4-2,8.7h5l-0.7,3.1h-5l-5.3,23.2c-0.3,1.1-0.4,2-0.4,2.7c0,1.9,1,2.8,2.9,2.8
			c1,0,1.7-0.1,2.2-0.2c-1.1,3-2.4,5-3.9,6c-1.5,1-3.1,1.5-4.9,1.5C378,77.8,375.9,77,374.5,75.4z"/>
	</g>
</g>
</svg>
